<?xml version="1.0" encoding="UTF-8"?>
<svg id="Calque_1" xmlns="http://www.w3.org/2000/svg" version="1.1" xmlns:xlink="http://www.w3.org/1999/xlink" viewBox="0 0 64 64">
  <!-- Generator: Adobe Illustrator 29.1.0, SVG Export Plug-In . SVG Version: 2.1.0 Build 142)  -->
  <defs>
    <style>
      .st0 {
        fill: #fff;
      }

      .st1, .st2 {
        fill: none;
      }

      .st2 {
        stroke: #fff;
        stroke-linecap: round;
        stroke-miterlimit: 10.7;
        stroke-width: 4px;
      }

      .st3 {
        display: none;
      }

      .st4 {
        clip-path: url(#clippath);
      }
    </style>
    <clipPath id="clippath">
      <rect class="st1" x="2.8" y="3.7" width="58.8" height="57.4"/>
    </clipPath>
  </defs>
  <g id="Calque_11" data-name="Calque_1" class="st3">
    <g id="SVGRepo_iconCarrier">
      <path class="st2" d="M36,5.3s6.2.6,14.1,8.5c7.9,7.9,8.5,14.1,8.5,14.1"/>
      <path class="st2" d="M37.9,14.8s2.6.8,6.6,4.7c4,4,4.7,6.6,4.7,6.6"/>
      <path class="st0" d="M40.3,40.1l-1.5-1.4,1.5,1.4ZM41.5,38.8l1.5,1.4h0l-1.5-1.4ZM47.9,37.9l-1,1.7h0l1-1.7ZM53,40.8l-1,1.7,1-1.7ZM54.5,50l1.5,1.4-1.5-1.4ZM50.7,54l-1.5-1.4,1.5,1.4ZM47.1,55.9l.2,2-.2-2ZM20.8,43.9l1.5-1.4-1.5,1.4ZM8,18.6h-2c0,.1,2,0,2,0ZM25.3,22.7l1.5,1.4h0l-1.5-1.4ZM25.7,15.2l1.6-1.2-1.6,1.2ZM22.3,10.4l-1.6,1.2h0l1.6-1.2ZM14,9.6l1.5,1.4-1.5-1.4ZM9.8,14l-1.5-1.4h0l1.5,1.4ZM29.5,34.8l1.5-1.4-1.5,1.4ZM41.7,41.4l1.2-1.3-2.9-2.8-1.2,1.3,2.9,2.8ZM46.9,39.6l5.1,2.9,2-3.5-5.1-2.9-2,3.5ZM53,48.6l-3.8,4,2.9,2.8,3.8-4-2.9-2.8ZM46.9,53.9c-3.8.4-13.8,0-24.6-11.4l-2.9,2.8c11.8,12.4,23.1,13.1,27.9,12.6l-.4-4ZM22.3,42.6c-10.3-10.9-12.1-20.1-12.3-24.1l-4,.2c.3,4.9,2.4,15,13.4,26.6l2.9-2.8h0ZM26,24.9l.8-.8-2.9-2.8-.8.8,2.9,2.8ZM27.3,14l-3.4-4.8-3.3,2.3,3.4,4.8s3.3-2.3,3.3-2.3ZM12.6,8.2l-4.2,4.4,2.9,2.8,4.2-4.4-2.9-2.8ZM24.5,23.5c-1-.9-1.5-1.4-1.5-1.4h0s-.1.2-.2.3c-.1.2-.3.5-.4.9-.3.7-.4,1.7-.2,2.9.3,2.4,1.9,5.6,6,9.9l2.9-2.8c-3.8-4-4.7-6.5-4.9-7.7v-1h0s-.5-.5-1.5-1.4l-.2.3ZM28.1,36.2c4.1,4.3,7.1,6,9.5,6.3,1.2.2,2.2,0,2.9-.3.4,0,.6-.3.9-.5,0,0,.2,0,.3-.2h0l-1.4-1.4-1.4-1.4h0s-.3,0-.8,0c-1.1-.2-3.4-1.1-7.2-5.1l-2.9,2.8v-.2ZM24,9.3c-2.7-3.8-8.1-4.5-11.4-1l2.9,2.8c1.4-1.5,3.8-1.4,5.2.6l3.3-2.3h0ZM10,18.5c0-1.1.4-2.1,1.3-3.1l-2.9-2.8c-1.4,1.5-2.5,3.6-2.4,6l4-.2h0ZM49.2,52.6c-.7.8-1.5,1.2-2.3,1.3l.4,4c2-.2,3.6-1.3,4.8-2.5l-2.9-2.8ZM26.7,24.1c2.6-2.7,2.8-7,.6-10l-3.3,2.3c1.1,1.6,1,3.7-.2,5l2.9,2.8h0ZM52,42.6c2.2,1.3,2.6,4.4,1,6.1l2.9,2.8c3.5-3.7,2.5-9.8-1.9-12.3l-2,3.5h0ZM42.9,40.2c1-1.1,2.6-1.3,4-.5l2-3.5c-2.9-1.7-6.6-1.2-8.9,1.3l2.9,2.8h0Z"/>
    </g>
  </g>
  <g id="Calque_2">
    <g class="st4">
      <path d="M61.3,31.2h-23l21.3-8.4-.9-2.2-21.7,8.5,16.5-16.2-1.7-1.7-16.3,15.9,9-20.6-2.2-.9-9.2,21V3.7h-2.4v22.5L22.3,5.4l-2.2.9,8.7,21.2L12.2,11.3l-1.7,1.7,16.3,15.9L5.7,20l-1,2.2,21.5,9H2.8v2.4h23l-21.3,8.4.9,2.2,21.7-8.5-16.5,16.2,1.7,1.7,16.3-15.9-9,20.6,2.2.9,9.2-21v22.8h2.4v-22.5l8.5,20.9,2.2-.9-8.7-21.2,16.5,16.2,1.7-1.7-16.3-15.9,21.1,8.8,1-2.2-21.5-9h23.4v-2.4h0Z"/>
    </g>
  </g>
</svg>