<?xml version="1.0" encoding="UTF-8"?>
<svg xmlns="http://www.w3.org/2000/svg" version="1.1" xmlns:xlink="http://www.w3.org/1999/xlink" viewBox="0 0 800 800">
  <!-- Generator: Adobe Illustrator 29.1.0, SVG Export Plug-In . SVG Version: 2.1.0 Build 142)  -->
  <defs>
    <style>
      .st0 {
        fill: url(#Dégradé_sans_nom_20);
      }

      .st1 {
        fill: url(#Dégradé_sans_nom_11);
        fill-rule: evenodd;
      }

      .st2 {
        display: none;
      }
    </style>
    <linearGradient id="Dégradé_sans_nom_11" data-name="Dégradé sans nom 11" x1="798.5" y1="400" x2="0" y2="400" gradientUnits="userSpaceOnUse">
      <stop offset="0" stop-color="#ffbf00"/>
      <stop offset="1" stop-color="#cb1982"/>
    </linearGradient>
    <linearGradient id="Dégradé_sans_nom_20" data-name="Dégradé sans nom 20" x1="739.1" y1="400" x2="60.9" y2="400" gradientUnits="userSpaceOnUse">
      <stop offset="0" stop-color="#ffbf00"/>
      <stop offset="1" stop-color="#cb1982"/>
    </linearGradient>
  </defs>
  <g id="Calque_1" class="st2">
    <path class="st1" d="M486.7,250.6v31.2c30.1-18.7,64.9-29.6,117.8-29.6,172,0,194,128.6,194,240.6v305.5l-198.9,1.8v-292.2c0-49-17.6-58.4-50-58.4s-50,9.8-50,58.4v292.2l-201.5-1.8V250.5h188.7ZM200.2,250.2v549.5H0V250.2h200.2,0ZM150.1,300.3H50v449.4h100.1v-449.4h0ZM436.6,300.6h-88.6v448l101.4.9v-241.7c0-94.3,62.7-108.4,100.1-108.4s100.1,18.8,100.1,108.4v241.7l98.8-.9v-255.9c0-138.9-39-190.5-144-190.5s-90.4,18.7-117.2,41.2l-7,5.9h-43.6v-48.7ZM100.1,0c55.2,0,100.1,44.9,100.1,100.1s-44.9,100.1-100.1,100.1S0,155.3,0,100.1,44.9,0,100.1,0ZM100.1,50c-27.6,0-50,22.5-50,50s22.5,50.1,50,50.1,50.1-22.5,50.1-50-22.5-50-50.1-50.1Z"/>
  </g>
  <g id="Calque_2">
    <path class="st0" d="M695.9,167.9c16.6-59.4-8.3-124.4-9.7-128.6-4.1-9.7-13.8-18-24.9-18s-66.3-5.5-129.9,42.9c-49.8-9.7-106.4-12.4-109.2-12.4h-2.8c-2.8,0-59.4,2.8-109.2,12.4C246.6,15.8,183,21.4,180.3,21.4c-11.1,1.4-20.7,8.3-24.9,18-1.4,2.8-27.6,69.1-9.7,128.6-31.8,44.2-56.7,102.3-34.6,206,20.7,94,98.1,146.5,178.3,164.5-6.9,19.4-9.7,42.9-12.4,67.7-33.2,1.4-53.9-18-82.9-48.4-24.9-26.3-52.5-56.7-98.1-66.3-15.2-4.1-30.4,5.5-34.6,22.1-2.8,16.6,6.9,31.8,23.5,34.6,26.3,5.5,44.2,24.9,66.3,48.4,29,30.4,62.2,67.7,121.6,67.7h1.4c0,31.8,2.8,62.2,4.1,87.1,1.4,16.6,15.2,27.6,31.8,26.3,16.6-1.4,27.6-15.2,26.3-31.8-8.3-94-1.4-193.5,13.8-207.3,11.1-6.9,18-19.4,13.8-33.2-2.8-12.4-13.8-22.1-27.6-22.1s-142.4-6.9-167.3-121.6c-20.7-94,5.5-135.5,33.2-168.6,6.9-8.3,8.3-20.7,4.1-31.8-11.1-23.5-6.9-56.7-1.4-78.8,19.4,2.8,48.4,11.1,78.8,37.3,6.9,6.9,16.6,8.3,26.3,6.9,42.9-11.1,100.9-13.8,110.6-13.8s67.7,2.8,110.6,13.8c9.7,2.8,19.4,0,26.3-6.9,30.4-26.3,60.8-34.6,78.8-37.3,5.5,20.7,9.7,53.9-1.4,78.8-4.1,9.7-2.8,22.1,4.1,31.8,27.6,33.2,52.5,74.6,33.2,168.6-24.9,114.7-154.8,121.6-170,123-13.8,0-24.9,9.7-27.6,22.1-2.8,12.4,2.8,26.3,13.8,33.2,16.6,13.8,23.5,112,15.2,207.3-1.4,16.6,11.1,30.4,26.3,31.8h2.8c15.2,0,27.6-11.1,29-26.3,5.5-60.8,9.7-154.8-9.7-214.3,80.2-16.6,157.6-70.5,178.3-164.5,22.1-103.7-1.4-161.7-34.6-206h0Z"/>
  </g>
</svg>