<?xml version="1.0" encoding="UTF-8"?>
<svg id="Calque_1" xmlns="http://www.w3.org/2000/svg" version="1.1" xmlns:xlink="http://www.w3.org/1999/xlink" viewBox="0 0 800 800">
  <!-- Generator: Adobe Illustrator 29.1.0, SVG Export Plug-In . SVG Version: 2.1.0 Build 142)  -->
  <defs>
    <style>
      .st0 {
        fill: url(#Dégradé_sans_nom_11);
        fill-rule: evenodd;
      }
    </style>
    <linearGradient id="Dégradé_sans_nom_11" data-name="Dégradé sans nom 11" x1="798.5" y1="400" x2="0" y2="400" gradientUnits="userSpaceOnUse">
      <stop offset="0" stop-color="#ffbf00"/>
      <stop offset="1" stop-color="#cb1982"/>
    </linearGradient>
  </defs>
  <path class="st0" d="M486.7,250.6v31.2c30.1-18.7,64.9-29.6,117.8-29.6,172,0,194,128.6,194,240.6v305.5l-198.9,1.8v-292.2c0-49-17.6-58.4-50-58.4s-50,9.8-50,58.4v292.2l-201.5-1.8V250.5h188.7ZM200.2,250.2v549.5H0V250.2h200.2,0ZM150.1,300.3H50v449.4h100.1v-449.4h0ZM436.6,300.6h-88.6v448l101.4.9v-241.7c0-94.3,62.7-108.4,100.1-108.4s100.1,18.8,100.1,108.4v241.7l98.8-.9v-255.9c0-138.9-39-190.5-144-190.5s-90.4,18.7-117.2,41.2l-7,5.9h-43.6v-48.7ZM100.1,0c55.2,0,100.1,44.9,100.1,100.1s-44.9,100.1-100.1,100.1S0,155.3,0,100.1,44.9,0,100.1,0ZM100.1,50c-27.6,0-50,22.5-50,50s22.5,50.1,50,50.1,50.1-22.5,50.1-50-22.5-50-50.1-50.1Z"/>
</svg>